#tb 0: 1/10
#media_type 0: video
#codec_id 0: rawvideo
#dimensions 0: 320x240
#sar 0: 1/1
0,          0,          0,        1,   115200, 0xeba70ff3
0,          1,          1,        1,   115200, 0xd7523c5f
0,          2,          2,        1,   115200, 0xd93564b0
0,          3,          3,        1,   115200, 0xfd819089
0,          4,          4,        1,   115200, 0x7f15b966
0,          5,          5,        1,   115200, 0xa764e4d5
0,          6,          6,        1,   115200, 0x8dc4da52
0,          7,          7,        1,   115200, 0x7be2d1eb
0,          8,          8,        1,   115200, 0x8be7c6b2
0,          9,          9,        1,   115200, 0xd560bee9
